{"asset":{"version":"2.0","generator":"babylon.js glTF exporter for 3dsmax 2022 v20221031.2"},"scene":0,"scenes":[{"nodes":[0,1,2,3,4]}],"nodes":[{"mesh":0,"translation":[0.0,0.0,-7.464424E-09],"scale":[1.0,1.09430945,1.09430945],"name":"outerBottle"},{"mesh":1,"translation":[0.0,-3.72096274E-08,0.0],"scale":[1.0,1.09430945,1.09430945],"name":"innerBottle"},{"mesh":2,"translation":[7.487866E-08,7.487866E-08,0.0],"scale":[1.0,1.09430945,1.09430945],"name":"tetureLableBody"},{"mesh":3,"translation":[3.74233764E-08,3.74233764E-08,0.0],"scale":[1.0,1.09430945,1.09430945],"name":"bottleTop"},{"translation":[-2.3216424,-0.03297047,-1.441185E-09],"rotation":[0.7071068,0.0,0.0,0.7071067],"name":"NavInfo001"}],"meshes":[{"primitives":[{"attributes":{"POSITION":1,"NORMAL":2,"TEXCOORD_0":3},"indices":0,"material":0}],"name":"outerBottle"},{"primitives":[{"attributes":{"POSITION":5,"NORMAL":6,"TEXCOORD_0":7},"indices":4,"material":1}],"name":"innerBottle"},{"primitives":[{"attributes":{"POSITION":9,"NORMAL":10,"TEXCOORD_0":11},"indices":8,"material":2}],"name":"tetureLableBody"},{"primitives":[{"attributes":{"POSITION":13,"NORMAL":14,"TEXCOORD_0":15},"indices":12,"material":3}],"name":"bottleTop"}],"accessors":[{"bufferView":0,"componentType":5123,"count":28200,"type":"SCALAR","name":"accessorIndices"},{"bufferView":1,"componentType":5126,"count":4906,"max":[0.271802276,0.964216232,0.271802276],"min":[-0.271802247,-0.8403515,-0.271802217],"type":"VEC3","name":"accessorPositions"},{"bufferView":1,"byteOffset":58872,"componentType":5126,"count":4906,"type":"VEC3","name":"accessorNormals"},{"bufferView":2,"componentType":5126,"count":4906,"type":"VEC2","name":"accessorUVs"},{"bufferView":0,"byteOffset":56400,"componentType":5123,"count":27360,"type":"SCALAR","name":"accessorIndices"},{"bufferView":1,"byteOffset":117744,"componentType":5126,"count":4603,"max":[0.260245651,0.792369664,0.260245621],"min":[-0.2602456,-0.8293101,-0.2602456],"type":"VEC3","name":"accessorPositions"},{"bufferView":1,"byteOffset":172980,"componentType":5126,"count":4603,"type":"VEC3","name":"accessorNormals"},{"bufferView":2,"byteOffset":39248,"componentType":5126,"count":4603,"type":"VEC2","name":"accessorUVs"},{"bufferView":0,"byteOffset":111120,"componentType":5123,"count":120,"type":"SCALAR","name":"accessorIndices"},{"bufferView":1,"byteOffset":228216,"componentType":5126,"count":42,"max":[0.2691978,0.4433578,0.269197762],"min":[-0.269197732,0.000759305956,-0.269197762],"type":"VEC3","name":"accessorPositions"},{"bufferView":1,"byteOffset":228720,"componentType":5126,"count":42,"type":"VEC3","name":"accessorNormals"},{"bufferView":2,"byteOffset":76072,"componentType":5126,"count":42,"type":"VEC2","name":"accessorUVs"},{"bufferView":0,"byteOffset":111360,"componentType":5123,"count":1374,"type":"SCALAR","name":"accessorIndices"},{"bufferView":1,"byteOffset":229224,"componentType":5126,"count":315,"max":[0.133682147,1.14365518,0.133682117],"min":[-0.133682072,0.9481548,-0.133682132],"type":"VEC3","name":"accessorPositions"},{"bufferView":1,"byteOffset":233004,"componentType":5126,"count":315,"type":"VEC3","name":"accessorNormals"},{"bufferView":2,"byteOffset":76408,"componentType":5126,"count":315,"type":"VEC2","name":"accessorUVs"}],"bufferViews":[{"buffer":0,"byteLength":114108,"name":"bufferViewScalar"},{"buffer":0,"byteOffset":114108,"byteLength":236784,"byteStride":12,"name":"bufferViewFloatVec3"},{"buffer":0,"byteOffset":350892,"byteLength":78928,"byteStride":8,"name":"bufferViewFloatVec2"}],"buffers":[{"uri":"sprite.bin","byteLength":429820}],"materials":[{"pbrMetallicRoughness":{"baseColorFactor":[0.04705883,0.435294151,0.0196078438,1.0],"metallicFactor":0.0,"roughnessFactor":0.182592973},"name":"outerGreen"},{"pbrMetallicRoughness":{"baseColorFactor":[0.0392156877,0.5882353,0.04705883,1.0],"metallicFactor":0.0,"roughnessFactor":0.182592973},"name":"innerGreen"},{"pbrMetallicRoughness":{"baseColorTexture":{"index":0},"metallicFactor":0.0,"roughnessFactor":0.450053632},"name":"textureLable"},{"pbrMetallicRoughness":{"baseColorFactor":[0.003921569,0.0,0.09411766,1.0],"metallicFactor":0.0,"roughnessFactor":0.213348657},"name":"bottleTop"}],"textures":[{"sampler":0,"source":0,"name":"spriteTextureLabel.jpg"}],"images":[{"uri":"spriteTextureLabel.jpg"}],"samplers":[{"magFilter":9729,"minFilter":9987}]}