{"asset":{"version":"2.0","generator":"babylon.js glTF exporter for 3dsmax 2022 v20221031.2"},"scene":0,"scenes":[{"nodes":[0,1,2,3]}],"nodes":[{"mesh":0,"translation":[-1.073913E-07,-0.7254727,-3.461164E-08],"scale":[3.022075,3.30708528,3.30708528],"name":"outerBottle"},{"mesh":1,"translation":[-1.073913E-07,-0.725472748,-1.20536E-08],"scale":[3.022075,3.30708528,3.30708528],"name":"innerBottle"},{"mesh":2,"translation":[5.70493741E-09,-0.7254726,-1.20536E-08],"scale":[3.022075,3.30708528,3.30708528],"name":"bottleTop"},{"translation":[-2.3216424,-0.03297047,-1.441185E-09],"rotation":[0.7071068,0.0,0.0,0.7071067],"name":"NavInfo001"}],"meshes":[{"primitives":[{"attributes":{"POSITION":1,"NORMAL":2,"TEXCOORD_0":3},"indices":0,"mode":3,"material":0}],"name":"outerBottle"},{"primitives":[{"attributes":{"POSITION":5,"NORMAL":6,"TEXCOORD_0":7},"indices":4,"mode":3,"material":0}],"name":"innerBottle"},{"primitives":[{"attributes":{"POSITION":9,"NORMAL":10,"TEXCOORD_0":11},"indices":8,"mode":3,"material":0}],"name":"bottleTop"}],"accessors":[{"bufferView":0,"componentType":5123,"count":28200,"type":"SCALAR","name":"accessorIndices"},{"bufferView":1,"componentType":5126,"count":4906,"max":[0.271802276,0.964216232,0.271802276],"min":[-0.271802247,-0.8403515,-0.271802217],"type":"VEC3","name":"accessorPositions"},{"bufferView":1,"byteOffset":58872,"componentType":5126,"count":4906,"type":"VEC3","name":"accessorNormals"},{"bufferView":2,"componentType":5126,"count":4906,"type":"VEC2","name":"accessorUVs"},{"bufferView":0,"byteOffset":56400,"componentType":5123,"count":27360,"type":"SCALAR","name":"accessorIndices"},{"bufferView":1,"byteOffset":117744,"componentType":5126,"count":4603,"max":[0.260245651,0.792369664,0.260245621],"min":[-0.2602456,-0.8293101,-0.2602456],"type":"VEC3","name":"accessorPositions"},{"bufferView":1,"byteOffset":172980,"componentType":5126,"count":4603,"type":"VEC3","name":"accessorNormals"},{"bufferView":2,"byteOffset":39248,"componentType":5126,"count":4603,"type":"VEC2","name":"accessorUVs"},{"bufferView":0,"byteOffset":111120,"componentType":5123,"count":1374,"type":"SCALAR","name":"accessorIndices"},{"bufferView":1,"byteOffset":228216,"componentType":5126,"count":315,"max":[0.133682147,1.14365518,0.133682117],"min":[-0.133682072,0.9481548,-0.133682132],"type":"VEC3","name":"accessorPositions"},{"bufferView":1,"byteOffset":231996,"componentType":5126,"count":315,"type":"VEC3","name":"accessorNormals"},{"bufferView":2,"byteOffset":76072,"componentType":5126,"count":315,"type":"VEC2","name":"accessorUVs"},{"bufferView":3,"componentType":5126,"count":101,"max":[3.33333325],"min":[0.0],"type":"SCALAR","name":"accessorAnimationInput"},{"bufferView":4,"componentType":5126,"count":101,"type":"VEC4","name":"accessorAnimationRotations"},{"bufferView":3,"byteOffset":404,"componentType":5126,"count":101,"max":[3.33333325],"min":[0.0],"type":"SCALAR","name":"accessorAnimationInput"},{"bufferView":4,"byteOffset":1616,"componentType":5126,"count":101,"type":"VEC4","name":"accessorAnimationRotations"},{"bufferView":3,"byteOffset":808,"componentType":5126,"count":101,"max":[3.33333325],"min":[0.0],"type":"SCALAR","name":"accessorAnimationInput"},{"bufferView":4,"byteOffset":3232,"componentType":5126,"count":101,"type":"VEC4","name":"accessorAnimationRotations"}],"bufferViews":[{"buffer":0,"byteLength":113868,"name":"bufferViewScalar"},{"buffer":0,"byteOffset":113868,"byteLength":235776,"byteStride":12,"name":"bufferViewFloatVec3"},{"buffer":0,"byteOffset":349644,"byteLength":78592,"byteStride":8,"name":"bufferViewFloatVec2"},{"buffer":0,"byteOffset":428236,"byteLength":1212,"name":"bufferViewAnimationFloatScalar"},{"buffer":0,"byteOffset":429448,"byteLength":4848,"name":"bufferViewAnimationFloatVec4"}],"buffers":[{"uri":"sprite line.bin","byteLength":434296}],"materials":[{"pbrMetallicRoughness":{"baseColorFactor":[0.5882353,0.5882353,0.5882353,1.0],"metallicFactor":0.0,"roughnessFactor":0.450053632},"name":"09 - Default"}],"animations":[{"channels":[{"sampler":0,"target":{"node":0,"path":"rotation"}},{"sampler":1,"target":{"node":1,"path":"rotation"}},{"sampler":2,"target":{"node":2,"path":"rotation"}}],"samplers":[{"input":12,"output":13},{"input":14,"output":15},{"input":16,"output":17}],"name":"All Animations"}]}